<?xml version="1.0" standalone="no"?>
<!DOCTYPE svg PUBLIC "-//W3C//DTD SVG 20010904//EN"
 "http://www.w3.org/TR/2001/REC-SVG-20010904/DTD/svg10.dtd">
<svg version="1.0" xmlns="http://www.w3.org/2000/svg"
 width="200.000000pt" height="200.000000pt" viewBox="0 0 200.000000 200.000000"
 preserveAspectRatio="xMidYMid meet">
<metadata>
Created by potrace 1.14, written by Peter Selinger 2001-2017
</metadata>
<g transform="translate(0.000000,200.000000) scale(0.100000,-0.100000)"
fill="#000000" stroke="none">
<path d="M421 1389 c-124 -60 -226 -111 -228 -113 -2 -1 15 -40 37 -85 22 -45
40 -83 40 -85 0 -3 48 -107 127 -276 50 -105 114 -245 135 -292 l21 -48 127 0
128 0 19 48 c11 26 51 125 89 221 l69 173 25 -54 c14 -29 36 -78 49 -108 14
-30 49 -106 78 -167 l53 -113 127 0 128 0 17 43 c9 23 42 107 73 187 130 332
147 376 156 395 21 48 119 298 117 300 -47 25 -88 31 -88 13 -1 -7 -9 -31 -20
-53 -11 -22 -19 -47 -20 -56 0 -8 -4 -19 -8 -25 -4 -5 -35 -78 -68 -161 -32
-84 -61 -153 -64 -153 -3 0 -42 75 -85 168 -44 92 -100 209 -125 260 l-45 93
-155 -77 c-85 -42 -188 -91 -227 -110 -40 -18 -73 -37 -73 -41 0 -4 23 -58 51
-120 51 -109 52 -112 37 -148 l-14 -36 -34 73 c-60 130 -219 458 -222 457 -2
0 -104 -50 -227 -110z"/>
</g>
</svg>
