<?xml version="1.0" standalone="no"?>
<!DOCTYPE svg PUBLIC "-//W3C//DTD SVG 20010904//EN"
 "http://www.w3.org/TR/2001/REC-SVG-20010904/DTD/svg10.dtd">
<svg version="1.0" xmlns="http://www.w3.org/2000/svg"
 width="1304.000000pt" height="1304.000000pt" viewBox="0 0 1304.000000 1304.000000"
 preserveAspectRatio="xMidYMid meet">
<metadata>
Created by potrace 1.11, written by Peter Selinger 2001-2013
</metadata>
<g transform="translate(0.000000,1304.000000) scale(0.100000,-0.100000)"
fill="#000000" stroke="none">
<path d="M3650 10659 c-19 -10 -40 -19 -47 -19 -7 0 -13 -4 -13 -10 0 -5 -3
-9 -7 -8 -5 1 -80 -33 -167 -76 -87 -42 -164 -78 -170 -79 -6 -1 -13 -5 -16
-9 -4 -5 -275 -139 -290 -143 -3 0 -51 -24 -107 -52 -57 -28 -103 -50 -103
-48 0 1 -41 -19 -92 -46 -51 -27 -95 -49 -98 -49 -3 0 -74 -34 -158 -75 -84
-41 -157 -75 -163 -75 -5 0 -9 -4 -9 -10 0 -5 -5 -10 -12 -10 -11 0 -65 -26
-383 -181 -93 -46 -172 -83 -175 -84 -3 -1 -56 -26 -117 -57 -62 -31 -113 -54
-113 -52 0 3 -14 -4 -30 -16 -17 -12 -36 -23 -43 -24 -11 -3 -106 -48 -137
-65 -15 -9 -136 -67 -350 -169 -63 -30 -117 -57 -120 -61 -3 -3 -10 -7 -16 -8
-6 -1 -101 -46 -210 -100 -110 -53 -201 -97 -204 -98 -3 0 -71 -33 -152 -73
l-147 -73 23 -52 c26 -57 68 -147 130 -277 22 -47 41 -87 41 -90 1 -3 8 -18
15 -35 7 -16 13 -33 12 -37 -1 -3 5 -12 13 -18 8 -7 15 -16 15 -21 0 -9 37
-91 96 -214 16 -33 29 -62 29 -65 1 -3 17 -39 37 -80 19 -41 48 -102 63 -135
15 -33 42 -91 60 -130 18 -38 75 -160 125 -270 51 -110 111 -240 135 -290 43
-91 58 -127 55 -134 -1 -2 2 -7 7 -10 7 -5 35 -57 38 -71 0 -3 17 -40 38 -83
20 -44 37 -83 37 -88 0 -5 5 -9 12 -9 6 0 9 -3 5 -6 -3 -4 4 -25 15 -48 12
-22 23 -43 23 -46 2 -7 56 -123 155 -335 21 -44 48 -102 60 -130 45 -100 80
-175 118 -257 22 -45 53 -112 70 -148 16 -36 46 -100 66 -143 20 -42 48 -103
62 -135 14 -31 43 -93 64 -137 21 -44 47 -100 58 -125 11 -25 37 -81 58 -125
20 -44 38 -82 39 -85 0 -3 16 -36 35 -75 18 -38 34 -72 35 -75 5 -15 29 -69
83 -182 33 -70 66 -143 73 -162 7 -20 17 -36 21 -36 4 0 7 -3 6 -7 -1 -5 9
-30 22 -58 57 -124 90 -195 120 -260 17 -38 44 -97 60 -130 15 -33 42 -91 60
-130 18 -38 44 -95 58 -125 14 -30 40 -86 57 -125 18 -38 46 -99 63 -135 28
-61 128 -277 193 -417 41 -88 82 -180 109 -238 13 -27 47 -101 76 -162 30 -62
54 -117 54 -122 0 -36 -2 -36 1040 -36 l1014 0 49 125 c27 69 55 139 63 157 8
17 14 36 14 42 0 6 5 11 11 11 5 0 8 4 5 8 -3 5 1 19 8 33 7 13 13 26 13 29 4
13 16 48 28 75 7 17 25 64 41 105 15 41 34 84 41 95 7 11 13 29 13 42 0 12 5
25 10 28 6 4 8 11 5 16 -4 5 -1 9 4 9 6 0 11 6 11 14 0 7 6 29 14 47 8 19 14
36 13 39 -1 3 6 19 15 35 9 17 44 100 77 185 33 85 66 169 72 185 7 17 13 35
15 40 1 6 10 28 19 50 29 67 38 90 39 95 2 7 26 67 42 105 7 17 26 64 42 105
16 41 33 84 37 95 5 11 9 22 10 25 4 12 26 67 34 85 5 11 30 74 56 140 26 66
52 131 58 145 6 14 11 27 11 30 1 3 15 41 33 85 17 44 79 202 138 350 58 149
112 284 120 300 29 63 205 521 205 533 0 6 5 12 10 12 6 0 10 8 10 18 0 9 4
23 9 31 7 10 13 4 27 -25 9 -22 44 -95 76 -163 32 -68 58 -125 58 -127 0 -2
20 -46 44 -97 44 -92 81 -173 129 -277 13 -30 42 -93 64 -140 22 -47 47 -101
56 -120 8 -19 41 -88 71 -153 60 -126 89 -189 90 -197 1 -3 13 -30 28 -60 24
-51 55 -118 130 -280 50 -109 88 -191 123 -265 18 -38 42 -90 53 -115 11 -25
43 -94 71 -154 28 -59 51 -110 51 -111 0 -2 22 -50 49 -107 57 -121 103 -220
141 -303 15 -33 44 -96 65 -140 20 -44 50 -109 67 -145 16 -36 50 -107 74
-158 24 -51 44 -95 44 -97 0 -1 25 -55 55 -120 30 -64 55 -119 55 -123 0 -4 7
-16 16 -27 15 -20 27 -20 1030 -20 l1014 -1 21 56 c11 30 26 69 33 85 7 17 21
50 31 75 10 25 25 61 33 80 9 19 17 41 18 48 1 8 10 30 20 50 10 20 17 43 16
50 -2 6 1 12 6 12 5 0 9 6 9 13 0 6 22 64 48 127 55 136 62 153 63 160 1 3 19
49 41 102 21 53 37 99 33 102 -3 3 0 6 6 6 7 0 12 5 12 11 0 5 32 90 71 187
39 97 72 182 73 187 2 6 8 21 13 35 6 14 25 61 42 105 17 44 35 89 40 100 5
11 16 40 26 65 10 25 21 54 26 65 9 21 70 176 164 415 31 80 60 154 65 165 14
32 101 249 104 260 3 10 21 57 33 85 3 8 7 17 8 20 1 3 5 14 10 25 4 11 17 43
27 70 10 28 23 59 28 70 5 11 59 148 121 305 61 157 117 300 125 317 8 18 21
51 29 73 8 22 21 55 28 73 16 35 41 99 43 107 0 3 5 16 11 30 27 62 36 86 39
99 1 8 9 28 18 45 17 37 78 187 80 201 2 6 10 27 19 49 9 21 17 41 17 45 1 3
9 24 20 46 11 22 19 45 20 50 0 6 9 28 20 49 10 22 17 43 14 47 -3 5 0 9 5 9
6 0 10 3 9 8 -1 4 6 24 15 46 9 21 17 42 17 47 0 5 4 17 10 27 8 14 49 117
103 257 7 17 11 33 9 38 -1 4 2 7 8 7 5 0 10 5 10 10 0 9 49 138 83 220 5 14
11 31 13 39 1 8 10 28 18 45 9 17 41 96 72 176 31 80 62 159 69 175 7 17 17
42 20 58 4 15 12 27 18 27 6 0 7 3 4 7 -4 3 -2 12 4 20 6 7 8 13 4 13 -4 0 -3
6 3 13 5 6 13 27 17 45 3 17 11 32 16 32 5 0 9 6 9 14 0 13 103 283 130 341 5
11 26 63 46 115 20 52 43 111 51 130 21 48 26 63 64 160 17 47 40 104 51 127
10 23 18 46 18 51 0 5 6 22 14 38 8 16 40 94 71 174 31 80 69 177 84 215 80
196 104 260 104 272 0 7 4 13 9 13 4 0 8 9 8 19 0 11 5 23 10 26 28 17 -18 60
-75 69 -5 1 -15 5 -21 9 -6 3 -49 20 -95 37 -46 17 -93 35 -104 40 -11 5 -67
27 -125 49 -58 22 -127 49 -153 60 -59 26 -67 26 -67 4 0 -10 -7 -27 -15 -37
-8 -10 -12 -23 -9 -27 3 -5 0 -9 -7 -9 -7 0 -10 -3 -7 -6 4 -3 -5 -30 -18 -60
-13 -30 -21 -54 -18 -54 4 0 2 -6 -4 -12 -5 -7 -35 -78 -66 -158 -31 -80 -61
-154 -66 -165 -15 -34 -59 -149 -62 -165 -2 -8 -5 -17 -8 -20 -3 -3 -18 -39
-34 -80 -16 -41 -34 -88 -41 -105 -7 -16 -30 -73 -50 -125 -20 -52 -41 -104
-45 -115 -23 -53 -69 -166 -71 -173 -1 -4 -5 -16 -9 -27 -4 -11 -17 -42 -27
-70 -11 -27 -24 -59 -28 -70 -5 -11 -9 -22 -10 -25 -1 -3 -7 -18 -13 -33 -7
-16 -12 -31 -12 -33 0 -3 -11 -30 -25 -59 -13 -30 -28 -67 -31 -82 -4 -16 -10
-30 -13 -33 -3 -3 -12 -23 -20 -45 -7 -22 -19 -53 -26 -70 -7 -16 -23 -57 -36
-90 -13 -33 -27 -64 -31 -70 -4 -5 -8 -16 -8 -25 0 -8 -6 -26 -13 -40 -12 -24
-51 -120 -52 -130 0 -3 -7 -16 -15 -30 -7 -14 -13 -26 -12 -28 1 -1 -5 -19
-14 -40 -9 -20 -17 -41 -18 -47 -1 -5 -10 -28 -20 -50 -10 -22 -19 -44 -20
-50 -1 -5 -5 -16 -9 -22 -5 -7 -5 -13 -1 -13 3 0 2 -6 -4 -12 -10 -13 -71
-162 -77 -188 -2 -8 -14 -37 -26 -65 -13 -27 -23 -52 -24 -55 -2 -15 -79 -207
-88 -217 -5 -7 -6 -13 -3 -13 4 0 1 -10 -6 -22 -6 -13 -13 -27 -14 -33 -2 -8
-182 -465 -215 -545 -6 -14 -11 -27 -12 -30 0 -3 -11 -28 -23 -56 -13 -29 -20
-55 -17 -58 4 -3 -1 -6 -10 -6 -9 0 -17 4 -17 9 0 5 -30 72 -67 148 -37 76
-68 140 -69 143 -1 6 -100 213 -159 332 -24 47 -41 89 -38 92 4 3 1 6 -5 6 -7
0 -12 4 -12 9 0 5 -34 80 -76 167 -42 88 -98 204 -124 259 -119 250 -151 318
-205 430 -31 66 -88 183 -125 260 -37 77 -89 185 -115 240 -26 55 -69 145 -96
201 -27 55 -49 106 -49 112 0 7 -4 12 -10 12 -5 0 -10 5 -10 11 0 6 -24 61
-54 122 -29 62 -82 171 -116 242 -34 72 -83 173 -108 225 -25 52 -47 97 -47
100 -2 6 -135 285 -259 540 -22 47 -40 88 -38 93 1 4 -3 7 -8 7 -6 0 -10 4
-10 10 0 5 -30 71 -67 147 -37 76 -68 140 -68 143 -1 3 -20 45 -43 94 l-42 88
-25 -16 c-14 -9 -25 -13 -25 -10 0 4 -9 -1 -20 -11 -11 -10 -20 -15 -20 -12 0
3 -48 -18 -107 -47 -221 -110 -403 -196 -411 -196 -5 0 -15 -7 -22 -15 -6 -8
-15 -14 -18 -13 -4 1 -77 -32 -162 -74 -175 -85 -403 -196 -625 -303 -82 -40
-226 -110 -320 -156 -93 -45 -172 -83 -175 -84 -3 0 -16 -7 -30 -15 -14 -8
-27 -15 -30 -15 -5 -1 -219 -105 -399 -194 -57 -28 -109 -51 -117 -51 -8 0
-14 -4 -14 -9 0 -5 -10 -13 -22 -17 -13 -4 -111 -50 -218 -102 -446 -216 -597
-289 -627 -303 -18 -8 -33 -17 -33 -21 0 -5 -7 -8 -15 -8 -8 0 -64 -25 -123
-55 -60 -30 -114 -55 -120 -55 -22 0 -17 -16 72 -204 31 -65 56 -119 56 -121
0 -2 25 -56 56 -121 60 -128 78 -166 203 -436 16 -35 60 -130 98 -213 39 -82
81 -172 93 -200 13 -27 49 -106 82 -173 32 -68 58 -126 58 -129 0 -3 13 -32
30 -64 16 -33 27 -59 23 -59 -3 0 1 -8 9 -17 9 -10 21 -35 28 -55 6 -21 16
-38 22 -38 6 0 8 -3 5 -6 -4 -4 1 -19 10 -35 16 -27 16 -31 -21 -126 -21 -54
-38 -104 -39 -110 0 -7 -4 -13 -9 -13 -4 0 -8 -7 -8 -15 0 -8 -9 -34 -19 -58
-10 -23 -38 -93 -62 -154 -24 -62 -47 -113 -50 -113 -4 0 -21 30 -39 68 -18
37 -44 92 -58 122 -15 30 -26 58 -24 63 1 4 -3 7 -8 7 -6 0 -10 4 -10 9 0 6
-36 84 -80 176 -44 91 -79 166 -79 168 0 1 -27 58 -61 127 -127 259 -140 288
-140 299 0 6 -5 11 -10 11 -6 0 -9 3 -8 8 1 7 -86 193 -137 293 -13 26 -21 49
-18 53 4 3 1 6 -5 6 -6 0 -14 10 -17 21 -4 12 -30 70 -58 128 -28 58 -50 109
-49 114 1 4 -2 7 -8 7 -5 0 -10 4 -10 9 0 5 -28 67 -62 138 -35 70 -63 130
-63 133 -1 3 -18 39 -38 80 -20 41 -36 79 -36 84 1 5 -3 12 -8 15 -4 3 -24 40
-43 81 -19 41 -39 78 -43 81 -4 3 -9 16 -10 27 -1 12 -4 22 -7 22 -3 0 -11 15
-19 33 -16 36 -148 311 -191 399 -16 31 -26 59 -22 62 3 3 0 6 -6 6 -7 0 -12
4 -12 9 0 9 -64 145 -202 431 -36 74 -82 169 -101 210 -19 41 -73 154 -119
250 -47 96 -100 207 -118 245 -59 126 -111 230 -118 237 -4 3 -23 -3 -42 -13z"/>
</g>
</svg>
